<svg xmlns="http://www.w3.org/2000/svg" width="25" height="25">
    <path style="stroke:none;fill-rule:nonzero;fill:#000;fill-opacity:1" d="M0 3.125A3.124 3.124 0 0 1 3.125 0h18.75A3.124 3.124 0 0 1 25 3.125v18.75A3.124 3.124 0 0 1 21.875 25H3.125A3.124 3.124 0 0 1 0 21.875Zm13.953 7.168-3.578.45-.129.593.703.129c.461.11.551.277.45.734l-1.153 5.418c-.3 1.403.164 2.063 1.262 2.063.851 0 1.844-.395 2.289-.938l.14-.648c-.312.273-.769.383-1.074.383-.43 0-.586-.301-.472-.832Zm-1.453-1.7a1.562 1.562 0 1 0 0-3.123 1.562 1.562 0 0 0 0 3.124Zm0 0"/>
</svg>
