<svg xmlns="http://www.w3.org/2000/svg" width="15" height="15">
    <path style="stroke:none;fill-rule:nonzero;fill:#ff0000;fill-opacity:1" d="M8.973 12.188h.804c.223 0 .403-.157.403-.352V5.508c0-.196-.18-.352-.403-.352h-.804c-.223 0-.403.157-.403.352v6.328c0 .195.18.351.403.351Zm5.492-9.844h-2.762L10.566.684C10.277.258 9.754 0 9.187 0H5.813c-.567 0-1.09.258-1.38.684l-1.136 1.66H.535c-.297 0-.535.21-.535.469v.468c0 .258.238.469.535.469h.535v9.844c0 .777.72 1.406 1.61 1.406h9.64c.89 0 1.61-.629 1.61-1.406V3.75h.535c.297 0 .535-.21.535-.469v-.469c0-.257-.238-.468-.535-.468Zm-8.711-.852a.202.202 0 0 1 .172-.086h3.148c.07 0 .137.032.172.086l.586.852H5.168Zm6.566 12.102H2.68V3.75h9.64Zm-7.097-1.406h.804c.223 0 .403-.157.403-.352V5.508c0-.196-.18-.352-.403-.352h-.804c-.223 0-.403.157-.403.352v6.328c0 .195.18.351.403.351Zm0 0"/>
</svg>
