<svg xmlns="http://www.w3.org/2000/svg" width="10" height="10">
    <path style="stroke:none;fill-rule:nonzero;fill:#000;fill-opacity:1" d="M.715 9.063c0 .519.48.937 1.07.937h6.43c.59 0 1.07-.418 1.07-.938V2.5H.715Zm6.07-5c0-.172.16-.313.36-.313.195 0 .355.14.355.313v4.375c0 .171-.16.312-.355.312-.2 0-.36-.14-.36-.313Zm-2.14 0c0-.172.16-.313.355-.313.195 0 .355.14.355.313v4.375c0 .171-.16.312-.355.312-.195 0-.355-.14-.355-.313Zm-2.145 0c0-.172.16-.313.355-.313.2 0 .36.14.36.313v4.375c0 .171-.16.312-.36.312-.195 0-.355-.14-.355-.313ZM9.645.624h-2.68L6.754.258A.554.554 0 0 0 6.274 0H3.722a.542.542 0 0 0-.477.262l-.21.363H.355C.16.625 0 .765 0 .938v.625c0 .171.16.312.355.312h9.29c.195 0 .355-.14.355-.313V.938c0-.171-.16-.312-.355-.312Zm0 0"/>
</svg>
